<?xml version="1.0" standalone="no"?>
<!DOCTYPE svg PUBLIC "-//W3C//DTD SVG 20010904//EN"
 "http://www.w3.org/TR/2001/REC-SVG-20010904/DTD/svg10.dtd">
<svg version="1.0" xmlns="http://www.w3.org/2000/svg"
 width="800.000000pt" height="800.000000pt" viewBox="0 0 800.000000 800.000000"
 preserveAspectRatio="xMidYMid meet">
<metadata>
Created by potrace 1.11, written by Peter Selinger 2001-2013
</metadata>
<g transform="translate(0.000000,800.000000) scale(0.100000,-0.100000)"
fill="#000000" stroke="none">
<path d="M3660 7479 c-1285 -113 -2419 -869 -2977 -1984 -156 -310 -249 -600
-315 -980 -21 -120 -23 -160 -23 -510 0 -412 4 -455 71 -753 129 -577 444
-1151 874 -1596 610 -631 1375 -1005 2290 -1118 141 -17 699 -17 840 0 278 34
533 90 769 167 1483 485 2481 1812 2481 3300 0 877 -344 1714 -970 2359 -625
645 -1460 1037 -2375 1115 -139 12 -526 12 -665 0z m392 -676 c121 -160 247
-410 282 -563 l14 -58 -97 -65 c-53 -36 -131 -98 -175 -138 l-78 -73 -32 36
c-42 49 -146 133 -234 192 -70 46 -73 50 -67 80 12 61 48 162 90 251 71 153
221 385 248 385 7 0 29 -21 49 -47z m-513 -717 c177 -90 369 -243 433 -347
l30 -50 40 60 c68 105 244 244 423 335 l70 35 8 -22 c12 -30 -9 -303 -31 -405
l-17 -83 -97 -43 c-131 -59 -251 -140 -330 -225 l-66 -69 -46 54 c-80 92 -208
179 -363 247 l-78 34 -16 64 c-27 106 -53 449 -34 449 3 0 36 -15 74 -34z
m-186 -530 c278 -125 540 -318 626 -459 l23 -38 36 53 c55 82 154 172 287 260
139 93 417 233 442 224 31 -12 2 -395 -45 -566 l-17 -64 -125 -51 c-242 -99
-367 -174 -496 -297 l-80 -77 -76 73 c-128 124 -288 219 -515 306 l-111 43
-16 56 c-29 105 -47 246 -53 414 -5 139 -4 167 8 167 8 0 58 -20 112 -44z
m-216 -672 c255 -77 516 -197 649 -298 58 -44 141 -136 204 -226 15 -22 16
-22 54 35 103 155 249 263 506 373 109 47 358 132 428 147 l32 7 0 -42 c0 -73
-49 -289 -98 -434 l-47 -139 -130 -52 c-247 -98 -395 -187 -519 -311 -42 -42
-76 -80 -76 -85 0 -5 -19 1 -42 13 -56 30 -140 31 -187 3 l-34 -20 -86 86
c-47 48 -122 110 -166 139 -92 60 -261 143 -388 190 -67 25 -91 39 -101 59
-17 34 -70 197 -92 281 -16 66 -54 271 -54 296 0 20 16 18 147 -22z m-111
-675 c442 -141 685 -292 815 -509 l37 -60 21 35 c52 88 195 76 219 -18 l8 -32
34 64 c44 81 162 208 248 265 141 93 384 200 601 265 103 31 151 38 151 24 0
-36 -37 -223 -65 -331 -71 -269 -151 -431 -274 -552 -81 -79 -150 -125 -253
-168 -53 -23 -78 -27 -158 -27 -107 0 -157 17 -223 75 -20 17 -37 28 -37 22 0
-5 25 -387 56 -848 30 -462 54 -875 52 -920 -3 -69 -7 -87 -33 -130 -19 -30
-49 -60 -79 -79 -44 -27 -58 -30 -130 -30 -65 0 -90 5 -126 24 -78 40 -126 98
-144 173 -5 22 89 1549 109 1766 l6 63 -34 -34 c-62 -61 -119 -82 -227 -82
-158 1 -266 53 -416 200 -83 82 -97 101 -148 205 -85 175 -157 424 -181 623
-7 56 -7 57 18 57 13 0 82 -19 153 -41z"/>
</g>
</svg>
