<svg id="Layer_1" data-name="Layer 1" xmlns="http://www.w3.org/2000/svg" viewBox="0 0 361.518 182.149"><title>AGCAP_RGB_Primary_White</title><path d="M286.319,86.586c0,35.288-30.068,63.894-67.159,63.894s-67.155-28.606-67.155-63.894,30.067-63.895,67.155-63.895,67.159,28.606,67.159,63.9" transform="translate(-38.558 -22.691)" style="fill:#8f181b"/><path d="M219.222,51.82a25.35,25.35,0,0,1,6.281-5.087c-.634-4.962-5.911-12.536-6.281-12.3-.3-.282-5.639,7.307-6.279,12.3a25.367,25.367,0,0,1,6.279,5.087" transform="translate(-38.558 -22.691)" style="fill:#fff"/><path d="M219.222,76.907c3.066-3.927,7.988-6.171,12.824-7.871,1.592-4.982,1.441-11.592,1.235-11.73-.179-.123-9.634,3.917-12.983,8.394a14.854,14.854,0,0,0-1.076,1.627,14.085,14.085,0,0,0-1.07-1.627c-3.349-4.477-12.808-8.517-12.984-8.394-.209.138-.356,6.748,1.233,11.73,4.735,1.664,9.823,3.975,12.821,7.871" transform="translate(-38.558 -22.691)" style="fill:#fff"/><path d="M240.3,82.007c-.171-.158-11.241,2.771-15.7,7.134a13.655,13.655,0,0,0-3.146,4.462l-.008-.11a2.242,2.242,0,0,0-4.456,0l0,.1a13.708,13.708,0,0,0-3.145-4.452c-4.457-4.363-15.528-7.292-15.7-7.134-.255.236,1.4,11.865,5.862,16.23s9.2,4.824,11.925,2.308a5.224,5.224,0,0,0,.648-.767l-2.127,32.455c-.137,2.9,2.326,4.822,5.065,4.822a4.478,4.478,0,0,0,4.471-4.822l-2.127-32.461a5.351,5.351,0,0,0,.652.773c2.722,2.516,7.469,2.058,11.926-2.308s6.117-15.994,5.863-16.23" transform="translate(-38.558 -22.691)" style="fill:#fff"/><path d="M216.858,89.393a3.739,3.739,0,0,1,4.734,0c3.071-4.13,8.02-6.426,13.33-8.267,2.14-5.022,2.961-11.123,2.777-11.3-.167-.157-11.235,2.762-15.7,7.129a14.84,14.84,0,0,0-2.777,3.681,14.6,14.6,0,0,0-2.774-3.681c-4.464-4.367-15.533-7.286-15.7-7.129-.183.173.634,6.274,2.779,11.3,5.262,1.82,10.242,4.137,13.33,8.267" transform="translate(-38.558 -22.691)" style="fill:#fff"/><path d="M219.222,63.481c2.147-3.129,5.592-4.916,8.977-6.272a29.677,29.677,0,0,0,.863-9.347c-.126-.1-6.744,3.121-9.086,6.689a11.748,11.748,0,0,0-.754,1.295,11.515,11.515,0,0,0-.748-1.295c-2.346-3.568-8.966-6.787-9.088-6.689a29.584,29.584,0,0,0,.861,9.347c3.315,1.327,6.877,3.169,8.975,6.272" transform="translate(-38.558 -22.691)" style="fill:#fff"/><path d="M56.034,188.078H46.412a15.333,15.333,0,0,0-1.6,5,1.208,1.208,0,0,0,.765,1.292,7.259,7.259,0,0,0,2.3.272V196H38.558v-1.36a9.524,9.524,0,0,0,1.411-.272,3.735,3.735,0,0,0,1.054-.476,2.976,2.976,0,0,0,.8-.8,6.987,6.987,0,0,0,.646-1.207L51.41,169.48h2.516l8.126,19.856q.714,1.734,1.207,2.72a5.311,5.311,0,0,0,1.054,1.513,3.055,3.055,0,0,0,1.292.731,10.721,10.721,0,0,0,1.887.306V196H54.64v-1.394a8.143,8.143,0,0,0,2.346-.34,1.057,1.057,0,0,0,.714-1.088,4.261,4.261,0,0,0-.238-1.224q-.239-.747-.646-1.836Zm-8.84-2.04h8.092l-3.91-10.3H51.24Z" transform="translate(-38.558 -22.691)" style="fill:#fff"/><path d="M76.3,192.328q.918.069,1.615.136t1.326.153l1.258.17q.628.085,1.343.187a6.8,6.8,0,0,1,4.165,1.989,5.624,5.624,0,0,1,1.513,4,4.864,4.864,0,0,1-2.38,4.386q-2.381,1.5-7,1.5a13.994,13.994,0,0,1-6.545-1.241,3.852,3.852,0,0,1-2.3-3.519,3.578,3.578,0,0,1,.918-2.669,3.164,3.164,0,0,1,2.312-.9,4.321,4.321,0,0,1,1.717.357,3.78,3.78,0,0,1,1.411,1.037,2.5,2.5,0,0,0-1.445.8,2.149,2.149,0,0,0-.561,1.479,2.314,2.314,0,0,0,1.207,2.091,6.958,6.958,0,0,0,3.553.731q5.1,0,5.1-3.23a2.838,2.838,0,0,0-.765-1.989,3.4,3.4,0,0,0-2.193-1l-5.95-.816q-3.774-.51-3.774-3.366a3.052,3.052,0,0,1,.9-2.278,5,5,0,0,1,2.567-1.224v-.136a4.812,4.812,0,0,1-1.411-.85,6.152,6.152,0,0,1-1.105-1.258,5.883,5.883,0,0,1-.986-3.264,5.41,5.41,0,0,1,.527-2.363,5.541,5.541,0,0,1,1.462-1.887,7.222,7.222,0,0,1,2.21-1.241,8.121,8.121,0,0,1,2.771-.459,9.421,9.421,0,0,1,2.856.442A7.4,7.4,0,0,1,83,179.306q.782-.476,1.36-.8a8.187,8.187,0,0,1,1.071-.51,6.145,6.145,0,0,1,.9-.272,3.968,3.968,0,0,1,.816-.085,3.49,3.49,0,0,1,2.091.578,1.8,1.8,0,0,1,.8,1.53,1.624,1.624,0,0,1-.442,1.173,1.533,1.533,0,0,1-1.156.459,1.36,1.36,0,0,1-.816-.221,4.8,4.8,0,0,1-.595-.51,5.052,5.052,0,0,0-.595-.51,1.367,1.367,0,0,0-.816-.221,1.755,1.755,0,0,0-1.36.918,4.058,4.058,0,0,1,.476,1.241,7.825,7.825,0,0,1,.136,1.547,6.723,6.723,0,0,1-.408,2.38,5.143,5.143,0,0,1-1.275,1.921,7.3,7.3,0,0,1-2.227,1.411,11.538,11.538,0,0,1-3.3.782,8.71,8.71,0,0,0-2.261.442.878.878,0,0,0-.629.816Q74.768,192.192,76.3,192.328Zm1.632-4.148a1.874,1.874,0,0,0,1.7-1.156,8.874,8.874,0,0,0,0-6.477,1.9,1.9,0,0,0-1.734-1.139,2.059,2.059,0,0,0-1.836,1.156,6.233,6.233,0,0,0-.68,3.162,6.481,6.481,0,0,0,.7,3.247A2.087,2.087,0,0,0,77.93,188.18Z" transform="translate(-38.558 -22.691)" style="fill:#fff"/><path d="M126.074,169.82h1.666l-.68,8.6H125.7a9,9,0,0,0-2.771-4.93,7.3,7.3,0,0,0-4.981-1.8,7.749,7.749,0,0,0-3.571.8,7.359,7.359,0,0,0-2.634,2.278,10.779,10.779,0,0,0-1.632,3.6,18.735,18.735,0,0,0-.561,4.777q0,5.271,2.158,8.109a7.511,7.511,0,0,0,6.375,2.839,8.55,8.55,0,0,0,5.627-1.836,10.18,10.18,0,0,0,3.18-5.474h1.5V196h-1.6l-.476-2.686a13.971,13.971,0,0,1-9.078,3.026,16.269,16.269,0,0,1-5.61-.918,12.163,12.163,0,0,1-4.284-2.6,11.469,11.469,0,0,1-2.737-4.1,14.3,14.3,0,0,1-.969-5.372,15.072,15.072,0,0,1,1.02-5.644,12.59,12.59,0,0,1,7.293-7.225,15.517,15.517,0,0,1,5.695-1,12.637,12.637,0,0,1,3.876.578,18.394,18.394,0,0,1,3.91,1.87Z" transform="translate(-38.558 -22.691)" style="fill:#fff"/><path d="M143.753,184.508V183.08a4.725,4.725,0,0,0-.7-2.873,2.559,2.559,0,0,0-2.16-.9,1.988,1.988,0,0,0-1.5.527,5,5,0,0,0-.952,1.751,3.041,3.041,0,0,1-.867,1.326,2.316,2.316,0,0,1-1.547.476,1.844,1.844,0,0,1-1.462-.578,2.381,2.381,0,0,1-.511-1.632,2.88,2.88,0,0,1,1.786-2.584,11.85,11.85,0,0,1,5.389-.952q3.807,0,5.44,1.377t1.632,4.607v7.446q0,2.891,1.156,2.89a1.847,1.847,0,0,0,1.19-.442l.51.986a3.3,3.3,0,0,1-1.479,1.343,5.07,5.07,0,0,1-2.261.493,2.967,2.967,0,0,1-2.381-.952,4,4,0,0,1-.816-2.686h-.169a6.689,6.689,0,0,1-6.121,3.6,4.825,4.825,0,0,1-3.433-1.207,4.1,4.1,0,0,1-1.293-3.145,3.912,3.912,0,0,1,1.327-2.805,13.854,13.854,0,0,1,4.419-2.567Zm0,1.8a22.886,22.886,0,0,0-4.3,2.4,3.015,3.015,0,0,0-1.445,2.3,2.187,2.187,0,0,0,.544,1.564,1.787,1.787,0,0,0,1.36.578,4.024,4.024,0,0,0,1.529-.289,3.917,3.917,0,0,0,1.225-.765,3.394,3.394,0,0,0,.8-1.139,3.5,3.5,0,0,0,.288-1.411Z" transform="translate(-38.558 -22.691)" style="fill:#fff"/><path d="M161.025,180.19h.136a7.421,7.421,0,0,1,5.848-2.55,9.217,9.217,0,0,1,3.621.7,8.519,8.519,0,0,1,4.726,4.9,10.346,10.346,0,0,1,.663,3.757,10.209,10.209,0,0,1-.663,3.74,9.017,9.017,0,0,1-1.853,2.958,8.3,8.3,0,0,1-2.839,1.955,9.133,9.133,0,0,1-3.587.7,5.974,5.974,0,0,1-5.032-2.244h-.136v4.726a13.9,13.9,0,0,0,.136,2.176,2.257,2.257,0,0,0,.578,1.258,2.431,2.431,0,0,0,1.241.612,12.174,12.174,0,0,0,2.125.2V204.5h-11.73v-1.428a6.293,6.293,0,0,0,1.5-.2,1.663,1.663,0,0,0,.9-.612,2.735,2.735,0,0,0,.442-1.207,13.469,13.469,0,0,0,.119-1.989V186.412q0-1.563-.068-2.975a18.131,18.131,0,0,0-.17-1.989,1.5,1.5,0,0,0-.765-1.088,4.782,4.782,0,0,0-2.023-.306v-1.326l6.834-.952Zm5.78-.612a4.72,4.72,0,0,0-2.074.476,4.144,4.144,0,0,0-1.564,1.258,5.665,5.665,0,0,0-.884,1.955,10.014,10.014,0,0,0-.306,2.533v2.312a6.993,6.993,0,0,0,1.19,4.114,4.167,4.167,0,0,0,3.638,1.87,3.323,3.323,0,0,0,3.077-1.717,10.887,10.887,0,0,0,1-5.321Q170.885,179.579,166.805,179.578Z" transform="translate(-38.558 -22.691)" style="fill:#fff"/><path d="M188.089,190.424a18.358,18.358,0,0,0,.1,2.176,2.833,2.833,0,0,0,.408,1.258,1.494,1.494,0,0,0,.884.595,7.3,7.3,0,0,0,1.564.187V196h-10.71v-1.36a5.967,5.967,0,0,0,1.547-.221,1.782,1.782,0,0,0,.918-.612,2.615,2.615,0,0,0,.442-1.19,13.172,13.172,0,0,0,.119-1.955V186.48q0-1.971-.068-3.247a13.2,13.2,0,0,0-.17-1.751,1.443,1.443,0,0,0-.765-1.122,5.845,5.845,0,0,0-2.159-.272v-1.156l7.888-1.292Zm-5-19.992a2.564,2.564,0,0,1,.765-1.887,2.523,2.523,0,0,1,1.853-.765,2.613,2.613,0,0,1,2.652,2.652,2.523,2.523,0,0,1-.765,1.853,2.564,2.564,0,0,1-1.887.765,2.612,2.612,0,0,1-2.618-2.618Z" transform="translate(-38.558 -22.691)" style="fill:#fff"/><path d="M194.515,179.85v-1.53a8.945,8.945,0,0,0,3.417-1.751,7.585,7.585,0,0,0,2.057-2.7h1.734v4.114h3.909v1.87h-3.909v10.438a6.979,6.979,0,0,0,.459,2.992,1.6,1.6,0,0,0,1.547.884,2.169,2.169,0,0,0,2-1.224l.715.986q-.954,2.415-4.489,2.414a5.55,5.55,0,0,1-3.654-1.088,3.756,3.756,0,0,1-1.309-3.06V179.85Z" transform="translate(-38.558 -22.691)" style="fill:#fff"/><path d="M220.388,184.508V183.08a4.717,4.717,0,0,0-.7-2.873,2.556,2.556,0,0,0-2.159-.9,1.986,1.986,0,0,0-1.5.527,5,5,0,0,0-.953,1.751,3.041,3.041,0,0,1-.867,1.326,2.312,2.312,0,0,1-1.547.476,1.845,1.845,0,0,1-1.462-.578,2.385,2.385,0,0,1-.51-1.632,2.879,2.879,0,0,1,1.785-2.584,11.855,11.855,0,0,1,5.39-.952q3.807,0,5.439,1.377t1.632,4.607v7.446q0,2.891,1.157,2.89a1.847,1.847,0,0,0,1.19-.442l.509.986a3.29,3.29,0,0,1-1.479,1.343,5.065,5.065,0,0,1-2.26.493,2.967,2.967,0,0,1-2.381-.952,4,4,0,0,1-.816-2.686h-.17a6.686,6.686,0,0,1-6.12,3.6,4.822,4.822,0,0,1-3.433-1.207,4.1,4.1,0,0,1-1.293-3.145,3.915,3.915,0,0,1,1.326-2.805,13.872,13.872,0,0,1,4.42-2.567Zm0,1.8a22.9,22.9,0,0,0-4.3,2.4,3.016,3.016,0,0,0-1.444,2.3,2.187,2.187,0,0,0,.544,1.564,1.785,1.785,0,0,0,1.359.578,4.029,4.029,0,0,0,1.53-.289,3.912,3.912,0,0,0,1.224-.765,3.383,3.383,0,0,0,.8-1.139,3.5,3.5,0,0,0,.288-1.411Z" transform="translate(-38.558 -22.691)" style="fill:#fff"/><path d="M238.646,190.424a18.358,18.358,0,0,0,.1,2.176,2.833,2.833,0,0,0,.408,1.258,1.494,1.494,0,0,0,.884.595,7.3,7.3,0,0,0,1.564.187V196h-10.71v-1.36a5.967,5.967,0,0,0,1.547-.221,1.778,1.778,0,0,0,.918-.612,2.627,2.627,0,0,0,.442-1.19,13.172,13.172,0,0,0,.119-1.955V176.62q0-1.971-.068-3.247a13.357,13.357,0,0,0-.17-1.751,1.443,1.443,0,0,0-.765-1.122,5.845,5.845,0,0,0-2.159-.272v-1.156l7.888-1.292Z" transform="translate(-38.558 -22.691)" style="fill:#fff"/><path d="M279.479,169.82h1.667l-.681,8.6h-1.36a9,9,0,0,0-2.771-4.93,7.3,7.3,0,0,0-4.98-1.8,7.749,7.749,0,0,0-3.571.8,7.362,7.362,0,0,0-2.635,2.278,10.8,10.8,0,0,0-1.631,3.6,18.735,18.735,0,0,0-.561,4.777q0,5.271,2.158,8.109a7.511,7.511,0,0,0,6.375,2.839,8.552,8.552,0,0,0,5.627-1.836,10.173,10.173,0,0,0,3.179-5.474h1.5V196h-1.6l-.476-2.686a13.967,13.967,0,0,1-9.077,3.026,16.279,16.279,0,0,1-5.611-.918,12.167,12.167,0,0,1-4.283-2.6,11.458,11.458,0,0,1-2.738-4.1,14.3,14.3,0,0,1-.968-5.372,15.052,15.052,0,0,1,1.02-5.644,12.59,12.59,0,0,1,7.293-7.225,15.512,15.512,0,0,1,5.694-1,12.628,12.628,0,0,1,3.876.578,18.348,18.348,0,0,1,3.91,1.87Z" transform="translate(-38.558 -22.691)" style="fill:#fff"/><path d="M297.159,184.508V183.08a4.717,4.717,0,0,0-.7-2.873,2.556,2.556,0,0,0-2.159-.9,1.986,1.986,0,0,0-1.5.527,5,5,0,0,0-.953,1.751,3.041,3.041,0,0,1-.867,1.326,2.312,2.312,0,0,1-1.547.476,1.845,1.845,0,0,1-1.462-.578,2.385,2.385,0,0,1-.51-1.632,2.879,2.879,0,0,1,1.785-2.584,11.855,11.855,0,0,1,5.39-.952q3.807,0,5.439,1.377t1.632,4.607v7.446q0,2.891,1.157,2.89a1.847,1.847,0,0,0,1.19-.442l.509.986a3.29,3.29,0,0,1-1.479,1.343,5.065,5.065,0,0,1-2.26.493,2.967,2.967,0,0,1-2.381-.952,4,4,0,0,1-.816-2.686h-.17a6.686,6.686,0,0,1-6.12,3.6,4.822,4.822,0,0,1-3.433-1.207,4.1,4.1,0,0,1-1.293-3.145,3.915,3.915,0,0,1,1.326-2.805,13.872,13.872,0,0,1,4.42-2.567Zm0,1.8a22.9,22.9,0,0,0-4.3,2.4,3.016,3.016,0,0,0-1.444,2.3,2.187,2.187,0,0,0,.544,1.564,1.785,1.785,0,0,0,1.359.578,4.029,4.029,0,0,0,1.53-.289,3.912,3.912,0,0,0,1.224-.765,3.383,3.383,0,0,0,.8-1.139,3.519,3.519,0,0,0,.288-1.411Z" transform="translate(-38.558 -22.691)" style="fill:#fff"/><path d="M315.757,190.458a21.793,21.793,0,0,0,.085,2.193,2.678,2.678,0,0,0,.374,1.224,1.384,1.384,0,0,0,.884.561,10.732,10.732,0,0,0,1.615.2V196h-10.71v-1.36a10.6,10.6,0,0,0,1.581-.2,1.569,1.569,0,0,0,.918-.544,2.356,2.356,0,0,0,.425-1.156,15.887,15.887,0,0,0,.1-2.04v-4.25q0-2.005-.068-3.247a11.982,11.982,0,0,0-.17-1.683,2.62,2.62,0,0,0-.272-.731,1.1,1.1,0,0,0-.51-.442,2.753,2.753,0,0,0-.85-.2q-.51-.051-1.292-.051v-1.156l6.562-1.292.442,2.992h.136a7.967,7.967,0,0,1,2.652-2.21,7.291,7.291,0,0,1,3.366-.782,8.793,8.793,0,0,1,3.519.6,6.166,6.166,0,0,1,2.4,1.989,7.855,7.855,0,0,1,1.02,2.023,10.558,10.558,0,0,1,.442,3.417v4.794a21.793,21.793,0,0,0,.085,2.193,2.678,2.678,0,0,0,.374,1.224,1.373,1.373,0,0,0,.867.561,10.1,10.1,0,0,0,1.564.2V196H320.653v-1.36a7.763,7.763,0,0,0,1.615-.187,1.567,1.567,0,0,0,.9-.561,2.5,2.5,0,0,0,.408-1.173,15.97,15.97,0,0,0,.1-2.023v-4.624a17.689,17.689,0,0,0-.2-2.924,5.3,5.3,0,0,0-.663-1.921,2.647,2.647,0,0,0-1.207-1.054,4.738,4.738,0,0,0-1.87-.323,2.941,2.941,0,0,0-1.87.612,5.221,5.221,0,0,0-1.36,1.7,7.12,7.12,0,0,0-.527,1.581,9.089,9.089,0,0,0-.221,2.023Z" transform="translate(-38.558 -22.691)" style="fill:#fff"/><path d="M345.473,184.508V183.08a4.724,4.724,0,0,0-.7-2.873,2.558,2.558,0,0,0-2.159-.9,1.989,1.989,0,0,0-1.5.527,5,5,0,0,0-.952,1.751,3.041,3.041,0,0,1-.867,1.326,2.314,2.314,0,0,1-1.547.476,1.844,1.844,0,0,1-1.462-.578,2.385,2.385,0,0,1-.51-1.632,2.879,2.879,0,0,1,1.785-2.584,11.85,11.85,0,0,1,5.389-.952q3.807,0,5.44,1.377t1.632,4.607v7.446q0,2.891,1.156,2.89a1.847,1.847,0,0,0,1.19-.442l.51.986a3.3,3.3,0,0,1-1.479,1.343,5.07,5.07,0,0,1-2.261.493,2.964,2.964,0,0,1-2.38-.952,4,4,0,0,1-.816-2.686h-.17a6.689,6.689,0,0,1-6.12,3.6,4.826,4.826,0,0,1-3.434-1.207,4.1,4.1,0,0,1-1.292-3.145,3.911,3.911,0,0,1,1.326-2.805,13.849,13.849,0,0,1,4.42-2.567Zm0,1.8a22.868,22.868,0,0,0-4.3,2.4,3.015,3.015,0,0,0-1.445,2.3,2.187,2.187,0,0,0,.544,1.564,1.787,1.787,0,0,0,1.36.578,4.032,4.032,0,0,0,1.53-.289,3.912,3.912,0,0,0,1.224-.765,3.394,3.394,0,0,0,.8-1.139,3.5,3.5,0,0,0,.289-1.411Z" transform="translate(-38.558 -22.691)" style="fill:#fff"/><path d="M371.687,193.824h-.137a7.941,7.941,0,0,1-6.086,2.516,9.064,9.064,0,0,1-3.552-.68,8.228,8.228,0,0,1-2.788-1.9,8.577,8.577,0,0,1-1.819-2.907,10.3,10.3,0,0,1-.646-3.723,10.481,10.481,0,0,1,.662-3.774,9.633,9.633,0,0,1,1.8-3.009,8.04,8.04,0,0,1,2.72-1.989,8.8,8.8,0,0,1,6.426-.2,5.5,5.5,0,0,1,2.294,1.734h.137v-2.89q0-2.005-.052-3.451a12.726,12.726,0,0,0-.152-1.887,1.488,1.488,0,0,0-1.038-1.037,8.179,8.179,0,0,0-2.668-.323V169.14l8.6-1.36v19.448q0,2.55.05,3.927a15.244,15.244,0,0,0,.187,2.091,2.486,2.486,0,0,0,.2.714.981.981,0,0,0,.409.425,1.931,1.931,0,0,0,.731.2,10.958,10.958,0,0,0,1.172.051v1.326l-6.459.374Zm-1.055-7.582a9.984,9.984,0,0,0-.272-2.4,6.457,6.457,0,0,0-.816-1.955,4.109,4.109,0,0,0-1.564-1.5,4.251,4.251,0,0,0-2.04-.51,3.343,3.343,0,0,0-3.06,1.836,10.908,10.908,0,0,0-1.053,5.338,11.41,11.41,0,0,0,1.053,5.44,3.3,3.3,0,0,0,3.027,1.9,4.282,4.282,0,0,0,2.141-.578,4.772,4.772,0,0,0,1.666-1.564,5.4,5.4,0,0,0,.7-1.853,14.959,14.959,0,0,0,.22-2.839Z" transform="translate(-38.558 -22.691)" style="fill:#fff"/><path d="M392.664,184.508V183.08a4.717,4.717,0,0,0-.7-2.873,2.557,2.557,0,0,0-2.159-.9,1.989,1.989,0,0,0-1.5.527,5.014,5.014,0,0,0-.952,1.751,3.041,3.041,0,0,1-.867,1.326,2.312,2.312,0,0,1-1.547.476,1.845,1.845,0,0,1-1.462-.578,2.385,2.385,0,0,1-.51-1.632,2.879,2.879,0,0,1,1.785-2.584,11.853,11.853,0,0,1,5.389-.952q3.81,0,5.44,1.377t1.633,4.607v7.446q0,2.891,1.156,2.89a1.844,1.844,0,0,0,1.189-.442l.51.986a3.3,3.3,0,0,1-1.478,1.343,5.077,5.077,0,0,1-2.262.493,2.96,2.96,0,0,1-2.379-.952,4,4,0,0,1-.816-2.686h-.17a6.692,6.692,0,0,1-6.121,3.6,4.822,4.822,0,0,1-3.433-1.207,4.1,4.1,0,0,1-1.293-3.145,3.911,3.911,0,0,1,1.326-2.805,13.861,13.861,0,0,1,4.42-2.567Zm0,1.8a22.9,22.9,0,0,0-4.3,2.4,3.015,3.015,0,0,0-1.445,2.3,2.191,2.191,0,0,0,.544,1.564,1.788,1.788,0,0,0,1.36.578,4.032,4.032,0,0,0,1.53-.289,3.912,3.912,0,0,0,1.224-.765,3.394,3.394,0,0,0,.8-1.139,3.486,3.486,0,0,0,.289-1.411Z" transform="translate(-38.558 -22.691)" style="fill:#fff"/></svg>