<svg id="Layer_1" data-name="Layer 1" xmlns="http://www.w3.org/2000/svg" xmlns:xlink="http://www.w3.org/1999/xlink" viewBox="0 0 497.341 101.663"><defs><clipPath id="clip-path" transform="translate(-10.029 -11.754)"><rect x="10.029" y="12" width="106.852" height="101.17" style="fill:none"/></clipPath></defs><title>AGCAP_RGB_Secondary</title><g style="clip-path:url(#clip-path)"><path d="M116.882,62.585c0,28.074-23.92,50.832-53.428,50.832S10.029,90.659,10.029,62.585s23.92-50.831,53.425-50.831,53.428,22.758,53.428,50.831" transform="translate(-10.029 -11.754)" style="fill:#8f181b"/><path d="M63.5,34.928a20.16,20.16,0,0,1,5-4.047c-.5-3.948-4.7-9.973-5-9.787-.234-.225-4.486,5.813-4.995,9.787A20.181,20.181,0,0,1,63.5,34.928" transform="translate(-10.029 -11.754)" style="fill:#fff"/><path d="M63.5,54.886c2.44-3.125,6.356-4.91,10.2-6.262a26.123,26.123,0,0,0,.982-9.332c-.143-.1-7.665,3.117-10.329,6.678a11.972,11.972,0,0,0-.856,1.294,11.077,11.077,0,0,0-.851-1.294c-2.664-3.561-10.189-6.776-10.329-6.678a26.1,26.1,0,0,0,.98,9.332c3.768,1.324,7.816,3.162,10.2,6.262" transform="translate(-10.029 -11.754)" style="fill:#fff"/><path d="M80.275,58.943c-.136-.126-8.943,2.205-12.49,5.676a10.855,10.855,0,0,0-2.5,3.549l-.006-.087a1.783,1.783,0,0,0-3.545,0l0,.079a10.9,10.9,0,0,0-2.5-3.541c-3.546-3.471-12.354-5.8-12.489-5.676-.2.187,1.112,9.439,4.664,12.912s7.322,3.837,9.487,1.836a4.189,4.189,0,0,0,.516-.61L59.71,98.9a3.785,3.785,0,0,0,4.03,3.837A3.564,3.564,0,0,0,67.3,98.9L65.6,73.076a4.313,4.313,0,0,0,.519.615c2.166,2,5.942,1.637,9.488-1.836s4.866-12.725,4.664-12.912" transform="translate(-10.029 -11.754)" style="fill:#fff"/><path d="M61.623,64.819a2.974,2.974,0,0,1,3.766,0c2.443-3.286,6.38-5.112,10.605-6.577A29.115,29.115,0,0,0,78.2,49.256c-.133-.126-8.939,2.2-12.49,5.671A11.8,11.8,0,0,0,63.5,57.855,11.661,11.661,0,0,0,61.3,54.927c-3.552-3.474-12.358-5.8-12.489-5.671a28.938,28.938,0,0,0,2.21,8.986c4.186,1.448,8.148,3.291,10.6,6.577" transform="translate(-10.029 -11.754)" style="fill:#fff"/><path d="M63.5,44.205c1.708-2.49,4.449-3.912,7.142-4.99a23.649,23.649,0,0,0,.687-7.436c-.1-.078-5.365,2.483-7.229,5.322a9.216,9.216,0,0,0-.6,1.03,8.857,8.857,0,0,0-.595-1.03c-1.866-2.839-7.133-5.4-7.23-5.322a23.588,23.588,0,0,0,.685,7.436c2.638,1.055,5.471,2.521,7.14,4.99" transform="translate(-10.029 -11.754)" style="fill:#fff"/></g><path d="M163.328,66.078h-9.622a15.333,15.333,0,0,0-1.6,5,1.208,1.208,0,0,0,.765,1.292,7.259,7.259,0,0,0,2.3.272V74h-9.316V72.64a9.524,9.524,0,0,0,1.411-.272,3.735,3.735,0,0,0,1.054-.476,2.976,2.976,0,0,0,.8-.8,6.987,6.987,0,0,0,.646-1.207L158.7,47.48h2.516l8.126,19.856q.714,1.734,1.207,2.72a5.311,5.311,0,0,0,1.054,1.513,3.055,3.055,0,0,0,1.292.731,10.721,10.721,0,0,0,1.887.306V74H161.934V72.606a8.143,8.143,0,0,0,2.346-.34,1.057,1.057,0,0,0,.714-1.088,4.261,4.261,0,0,0-.238-1.224q-.238-.747-.646-1.836Zm-8.84-2.04h8.092l-3.91-10.3h-.136Z" transform="translate(-10.029 -11.754)" style="fill:#181719"/><path d="M183.592,70.328q.918.069,1.615.136t1.326.153l1.258.17q.629.085,1.343.187a6.8,6.8,0,0,1,4.165,1.989,5.624,5.624,0,0,1,1.513,4,4.864,4.864,0,0,1-2.38,4.386q-2.38,1.5-7,1.5a13.994,13.994,0,0,1-6.545-1.241,3.852,3.852,0,0,1-2.3-3.519,3.578,3.578,0,0,1,.918-2.669,3.164,3.164,0,0,1,2.312-.9,4.321,4.321,0,0,1,1.717.357,3.78,3.78,0,0,1,1.411,1.037,2.5,2.5,0,0,0-1.445.8,2.149,2.149,0,0,0-.561,1.479,2.314,2.314,0,0,0,1.207,2.091A6.958,6.958,0,0,0,185.7,81q5.1,0,5.1-3.23a2.838,2.838,0,0,0-.765-1.989,3.4,3.4,0,0,0-2.193-1l-5.95-.816q-3.774-.51-3.774-3.366a3.052,3.052,0,0,1,.9-2.278,5,5,0,0,1,2.567-1.224v-.136a4.812,4.812,0,0,1-1.411-.85,6.152,6.152,0,0,1-1.105-1.258,5.883,5.883,0,0,1-.986-3.264,5.41,5.41,0,0,1,.527-2.363,5.541,5.541,0,0,1,1.462-1.887,7.222,7.222,0,0,1,2.21-1.241,8.121,8.121,0,0,1,2.771-.459,9.421,9.421,0,0,1,2.856.442,7.4,7.4,0,0,1,2.38,1.224q.782-.475,1.36-.8a8.187,8.187,0,0,1,1.071-.51,6.145,6.145,0,0,1,.9-.272,3.968,3.968,0,0,1,.816-.085,3.49,3.49,0,0,1,2.091.578,1.8,1.8,0,0,1,.8,1.53,1.624,1.624,0,0,1-.442,1.173,1.533,1.533,0,0,1-1.156.459,1.36,1.36,0,0,1-.816-.221,4.8,4.8,0,0,1-.595-.51,5.052,5.052,0,0,0-.595-.51,1.367,1.367,0,0,0-.816-.221,1.755,1.755,0,0,0-1.36.918,4.058,4.058,0,0,1,.476,1.241,7.825,7.825,0,0,1,.136,1.547,6.723,6.723,0,0,1-.408,2.38,5.143,5.143,0,0,1-1.275,1.921,7.3,7.3,0,0,1-2.227,1.411,11.538,11.538,0,0,1-3.3.782,8.71,8.71,0,0,0-2.261.442.878.878,0,0,0-.629.816Q182.062,70.192,183.592,70.328Zm1.632-4.148a1.874,1.874,0,0,0,1.7-1.156,6.994,6.994,0,0,0,.612-3.23,6.981,6.981,0,0,0-.612-3.247,1.9,1.9,0,0,0-1.734-1.139,2.059,2.059,0,0,0-1.836,1.156,6.233,6.233,0,0,0-.68,3.162,6.481,6.481,0,0,0,.7,3.247A2.087,2.087,0,0,0,185.224,66.18Z" transform="translate(-10.029 -11.754)" style="fill:#181719"/><path d="M233.368,47.82h1.666l-.68,8.6h-1.36a9,9,0,0,0-2.771-4.93,7.3,7.3,0,0,0-4.981-1.8,7.749,7.749,0,0,0-3.571.8,7.35,7.35,0,0,0-2.634,2.278,10.779,10.779,0,0,0-1.632,3.6,18.735,18.735,0,0,0-.561,4.777q0,5.271,2.158,8.109a7.511,7.511,0,0,0,6.375,2.839A8.55,8.55,0,0,0,231,70.26a10.18,10.18,0,0,0,3.18-5.474h1.5V74h-1.6l-.477-2.686a13.967,13.967,0,0,1-9.077,3.026,16.279,16.279,0,0,1-5.611-.918,12.167,12.167,0,0,1-4.283-2.6,11.471,11.471,0,0,1-2.738-4.1,14.3,14.3,0,0,1-.968-5.372,15.072,15.072,0,0,1,1.02-5.644,12.59,12.59,0,0,1,7.293-7.225,15.517,15.517,0,0,1,5.695-1,12.637,12.637,0,0,1,3.876.578,18.394,18.394,0,0,1,3.91,1.87Z" transform="translate(-10.029 -11.754)" style="fill:#181719"/><path d="M251.047,62.508V61.08a4.725,4.725,0,0,0-.7-2.873,2.559,2.559,0,0,0-2.16-.9,1.988,1.988,0,0,0-1.5.527,4.982,4.982,0,0,0-.952,1.751,3.043,3.043,0,0,1-.868,1.326,2.311,2.311,0,0,1-1.546.476,1.844,1.844,0,0,1-1.462-.578,2.381,2.381,0,0,1-.511-1.632,2.88,2.88,0,0,1,1.786-2.584,11.85,11.85,0,0,1,5.389-.952q3.807,0,5.44,1.377t1.632,4.607V69.07q0,2.891,1.156,2.89a1.847,1.847,0,0,0,1.19-.442l.509.986a3.29,3.29,0,0,1-1.479,1.343,5.062,5.062,0,0,1-2.26.493,2.967,2.967,0,0,1-2.381-.952,4,4,0,0,1-.816-2.686h-.169a6.689,6.689,0,0,1-6.121,3.6A4.825,4.825,0,0,1,241.8,73.1a4.1,4.1,0,0,1-1.293-3.145,3.915,3.915,0,0,1,1.326-2.8,13.872,13.872,0,0,1,4.42-2.567Zm0,1.8a22.886,22.886,0,0,0-4.3,2.4A3.015,3.015,0,0,0,245.3,69a2.187,2.187,0,0,0,.544,1.564,1.787,1.787,0,0,0,1.36.578,4.024,4.024,0,0,0,1.529-.289,3.9,3.9,0,0,0,1.224-.765,3.383,3.383,0,0,0,.8-1.139,3.5,3.5,0,0,0,.288-1.411Z" transform="translate(-10.029 -11.754)" style="fill:#181719"/><path d="M268.319,58.19h.136a7.421,7.421,0,0,1,5.848-2.55,9.217,9.217,0,0,1,3.621.7,8.519,8.519,0,0,1,4.726,4.9,10.346,10.346,0,0,1,.663,3.757,10.209,10.209,0,0,1-.663,3.74,9.017,9.017,0,0,1-1.853,2.958,8.3,8.3,0,0,1-2.839,1.955,9.133,9.133,0,0,1-3.587.7,5.974,5.974,0,0,1-5.032-2.244H269.2v4.726A13.9,13.9,0,0,0,269.339,79a2.257,2.257,0,0,0,.578,1.258,2.427,2.427,0,0,0,1.241.612,12.174,12.174,0,0,0,2.125.2V82.5h-11.73V81.072a6.293,6.293,0,0,0,1.5-.2,1.663,1.663,0,0,0,.9-.612,2.747,2.747,0,0,0,.442-1.207,13.469,13.469,0,0,0,.119-1.989V64.412q0-1.563-.068-2.975a18.391,18.391,0,0,0-.17-1.989,1.5,1.5,0,0,0-.765-1.088,4.782,4.782,0,0,0-2.023-.306V56.728l6.834-.952Zm5.78-.612a4.72,4.72,0,0,0-2.074.476,4.144,4.144,0,0,0-1.564,1.258,5.665,5.665,0,0,0-.884,1.955,10.014,10.014,0,0,0-.306,2.533v2.312a6.985,6.985,0,0,0,1.19,4.114A4.167,4.167,0,0,0,274.1,72.1a3.324,3.324,0,0,0,3.077-1.717,10.887,10.887,0,0,0,1-5.321Q278.179,57.579,274.1,57.578Z" transform="translate(-10.029 -11.754)" style="fill:#181719"/><path d="M295.383,68.424a18.358,18.358,0,0,0,.1,2.176,2.833,2.833,0,0,0,.408,1.258,1.494,1.494,0,0,0,.884.595,7.3,7.3,0,0,0,1.564.187V74h-10.71V72.64a5.967,5.967,0,0,0,1.547-.221,1.782,1.782,0,0,0,.918-.612,2.627,2.627,0,0,0,.442-1.19,13.172,13.172,0,0,0,.119-1.955V64.48q0-1.971-.068-3.247a13.377,13.377,0,0,0-.17-1.751,1.443,1.443,0,0,0-.765-1.122,5.845,5.845,0,0,0-2.159-.272V56.932l7.888-1.292Zm-5-19.992a2.564,2.564,0,0,1,.765-1.887A2.523,2.523,0,0,1,293,45.78a2.613,2.613,0,0,1,2.652,2.652,2.523,2.523,0,0,1-.765,1.853A2.564,2.564,0,0,1,293,51.05a2.612,2.612,0,0,1-2.618-2.618Z" transform="translate(-10.029 -11.754)" style="fill:#181719"/><path d="M301.809,57.85V56.32a8.952,8.952,0,0,0,3.417-1.751,7.585,7.585,0,0,0,2.057-2.7h1.734V55.98h3.909v1.87h-3.909V68.288a6.979,6.979,0,0,0,.459,2.992,1.6,1.6,0,0,0,1.546.884,2.17,2.17,0,0,0,2.006-1.224l.715.986q-.954,2.415-4.489,2.414a5.55,5.55,0,0,1-3.654-1.088,3.756,3.756,0,0,1-1.309-3.06V57.85Z" transform="translate(-10.029 -11.754)" style="fill:#181719"/><path d="M327.682,62.508V61.08a4.717,4.717,0,0,0-.7-2.873,2.556,2.556,0,0,0-2.159-.9,1.985,1.985,0,0,0-1.5.527,5,5,0,0,0-.953,1.751,3.041,3.041,0,0,1-.867,1.326,2.312,2.312,0,0,1-1.547.476,1.845,1.845,0,0,1-1.462-.578,2.385,2.385,0,0,1-.51-1.632,2.879,2.879,0,0,1,1.785-2.584,11.855,11.855,0,0,1,5.39-.952q3.807,0,5.439,1.377t1.632,4.607V69.07q0,2.891,1.157,2.89a1.842,1.842,0,0,0,1.189-.442l.51.986a3.29,3.29,0,0,1-1.479,1.343,5.067,5.067,0,0,1-2.261.493,2.966,2.966,0,0,1-2.38-.952,4,4,0,0,1-.816-2.686h-.17a6.689,6.689,0,0,1-6.12,3.6,4.822,4.822,0,0,1-3.433-1.207,4.1,4.1,0,0,1-1.293-3.145,3.911,3.911,0,0,1,1.326-2.8,13.872,13.872,0,0,1,4.42-2.567Zm0,1.8a22.9,22.9,0,0,0-4.3,2.4,3.013,3.013,0,0,0-1.444,2.3,2.19,2.19,0,0,0,.543,1.564,1.788,1.788,0,0,0,1.36.578,4.029,4.029,0,0,0,1.53-.289,3.912,3.912,0,0,0,1.224-.765,3.383,3.383,0,0,0,.8-1.139,3.519,3.519,0,0,0,.288-1.411Z" transform="translate(-10.029 -11.754)" style="fill:#181719"/><path d="M345.94,68.424a18.358,18.358,0,0,0,.1,2.176,2.833,2.833,0,0,0,.408,1.258,1.494,1.494,0,0,0,.884.595,7.3,7.3,0,0,0,1.564.187V74h-10.71V72.64a5.967,5.967,0,0,0,1.547-.221,1.782,1.782,0,0,0,.918-.612,2.627,2.627,0,0,0,.442-1.19,13.172,13.172,0,0,0,.119-1.955V54.62q0-1.971-.068-3.247a13.357,13.357,0,0,0-.17-1.751,1.443,1.443,0,0,0-.765-1.122,5.845,5.845,0,0,0-2.159-.272V47.072l7.888-1.292Z" transform="translate(-10.029 -11.754)" style="fill:#181719"/><path d="M386.773,47.82h1.666l-.68,8.6H386.4a9,9,0,0,0-2.771-4.93,7.3,7.3,0,0,0-4.981-1.8,7.747,7.747,0,0,0-3.57.8,7.362,7.362,0,0,0-2.635,2.278,10.8,10.8,0,0,0-1.631,3.6,18.735,18.735,0,0,0-.561,4.777q0,5.271,2.158,8.109a7.511,7.511,0,0,0,6.375,2.839,8.552,8.552,0,0,0,5.627-1.836,10.173,10.173,0,0,0,3.179-5.474h1.5V74h-1.6l-.476-2.686a13.967,13.967,0,0,1-9.077,3.026,16.275,16.275,0,0,1-5.611-.918,12.167,12.167,0,0,1-4.283-2.6,11.458,11.458,0,0,1-2.738-4.1,14.3,14.3,0,0,1-.969-5.372,15.052,15.052,0,0,1,1.021-5.644,12.592,12.592,0,0,1,7.292-7.225,15.521,15.521,0,0,1,5.695-1,12.628,12.628,0,0,1,3.876.578,18.371,18.371,0,0,1,3.91,1.87Z" transform="translate(-10.029 -11.754)" style="fill:#181719"/><path d="M404.453,62.508V61.08a4.717,4.717,0,0,0-.7-2.873,2.558,2.558,0,0,0-2.159-.9,1.985,1.985,0,0,0-1.5.527,4.981,4.981,0,0,0-.953,1.751,3.041,3.041,0,0,1-.867,1.326,2.312,2.312,0,0,1-1.547.476,1.845,1.845,0,0,1-1.462-.578,2.385,2.385,0,0,1-.51-1.632,2.879,2.879,0,0,1,1.785-2.584,11.85,11.85,0,0,1,5.389-.952q3.808,0,5.44,1.377t1.632,4.607V69.07q0,2.891,1.156,2.89a1.845,1.845,0,0,0,1.19-.442l.51.986a3.29,3.29,0,0,1-1.479,1.343,5.067,5.067,0,0,1-2.261.493,2.964,2.964,0,0,1-2.38-.952,4,4,0,0,1-.816-2.686h-.17a6.689,6.689,0,0,1-6.12,3.6,4.822,4.822,0,0,1-3.433-1.207,4.1,4.1,0,0,1-1.293-3.145,3.911,3.911,0,0,1,1.326-2.8,13.861,13.861,0,0,1,4.42-2.567Zm0,1.8a22.868,22.868,0,0,0-4.3,2.4,3.015,3.015,0,0,0-1.445,2.3,2.191,2.191,0,0,0,.544,1.564,1.787,1.787,0,0,0,1.36.578,4.032,4.032,0,0,0,1.53-.289,3.912,3.912,0,0,0,1.224-.765,3.38,3.38,0,0,0,.8-1.139,3.5,3.5,0,0,0,.289-1.411Z" transform="translate(-10.029 -11.754)" style="fill:#181719"/><path d="M423.051,68.458a21.793,21.793,0,0,0,.085,2.193,2.678,2.678,0,0,0,.374,1.224,1.384,1.384,0,0,0,.884.561,10.714,10.714,0,0,0,1.615.2V74H415.3V72.64a10.619,10.619,0,0,0,1.581-.2,1.572,1.572,0,0,0,.918-.544,2.366,2.366,0,0,0,.425-1.156,15.887,15.887,0,0,0,.1-2.04v-4.25q0-2.005-.068-3.247a12.142,12.142,0,0,0-.17-1.683,2.588,2.588,0,0,0-.273-.731,1.092,1.092,0,0,0-.509-.442,2.753,2.753,0,0,0-.85-.2q-.512-.051-1.292-.051V56.932l6.562-1.292.442,2.992h.136a7.967,7.967,0,0,1,2.652-2.21,7.29,7.29,0,0,1,3.365-.782,8.8,8.8,0,0,1,3.52.595,6.156,6.156,0,0,1,2.4,1.989,7.823,7.823,0,0,1,1.021,2.023,10.558,10.558,0,0,1,.442,3.417v4.794a21.793,21.793,0,0,0,.085,2.193,2.678,2.678,0,0,0,.374,1.224,1.374,1.374,0,0,0,.866.561,10.133,10.133,0,0,0,1.565.2V74H427.946V72.64a7.765,7.765,0,0,0,1.616-.187,1.57,1.57,0,0,0,.9-.561,2.5,2.5,0,0,0,.408-1.173,16.161,16.161,0,0,0,.1-2.023V64.072a17.8,17.8,0,0,0-.2-2.924,5.282,5.282,0,0,0-.664-1.921,2.642,2.642,0,0,0-1.207-1.054,4.738,4.738,0,0,0-1.87-.323,2.94,2.94,0,0,0-1.869.612,5.221,5.221,0,0,0-1.36,1.7,7.168,7.168,0,0,0-.528,1.581,9.09,9.09,0,0,0-.22,2.023Z" transform="translate(-10.029 -11.754)" style="fill:#181719"/><path d="M452.767,62.508V61.08a4.717,4.717,0,0,0-.7-2.873,2.557,2.557,0,0,0-2.159-.9,1.988,1.988,0,0,0-1.5.527,4.982,4.982,0,0,0-.952,1.751,3.041,3.041,0,0,1-.867,1.326,2.314,2.314,0,0,1-1.547.476,1.844,1.844,0,0,1-1.462-.578,2.381,2.381,0,0,1-.511-1.632,2.881,2.881,0,0,1,1.785-2.584,11.858,11.858,0,0,1,5.39-.952q3.807,0,5.439,1.377t1.632,4.607V69.07q0,2.891,1.157,2.89a1.847,1.847,0,0,0,1.19-.442l.51.986a3.3,3.3,0,0,1-1.48,1.343,5.067,5.067,0,0,1-2.261.493,2.963,2.963,0,0,1-2.379-.952,4,4,0,0,1-.817-2.686h-.17a6.689,6.689,0,0,1-6.12,3.6,4.823,4.823,0,0,1-3.433-1.207,4.1,4.1,0,0,1-1.292-3.145,3.911,3.911,0,0,1,1.326-2.8,13.849,13.849,0,0,1,4.42-2.567Zm0,1.8a22.835,22.835,0,0,0-4.3,2.4,3.015,3.015,0,0,0-1.445,2.3,2.19,2.19,0,0,0,.543,1.564,1.79,1.79,0,0,0,1.361.578,4.024,4.024,0,0,0,1.529-.289,3.906,3.906,0,0,0,1.225-.765,3.394,3.394,0,0,0,.8-1.139,3.5,3.5,0,0,0,.289-1.411Z" transform="translate(-10.029 -11.754)" style="fill:#181719"/><path d="M478.98,71.824h-.136a7.943,7.943,0,0,1-6.086,2.516,9.069,9.069,0,0,1-3.553-.68,8.238,8.238,0,0,1-2.788-1.9,8.575,8.575,0,0,1-1.818-2.907,10.283,10.283,0,0,1-.647-3.723,10.481,10.481,0,0,1,.663-3.774,9.63,9.63,0,0,1,1.8-3.009,8.044,8.044,0,0,1,2.721-1.989,8.8,8.8,0,0,1,6.425-.2,5.5,5.5,0,0,1,2.3,1.734h.136v-2.89q0-2.006-.051-3.451a12.677,12.677,0,0,0-.153-1.887,1.486,1.486,0,0,0-1.037-1.037,8.186,8.186,0,0,0-2.669-.323V47.14l8.6-1.36V65.228q0,2.55.05,3.927a14.93,14.93,0,0,0,.187,2.091,2.455,2.455,0,0,0,.2.714.978.978,0,0,0,.408.425,1.942,1.942,0,0,0,.732.2,10.958,10.958,0,0,0,1.172.051v1.326l-6.46.374Zm-1.054-7.582a10.034,10.034,0,0,0-.272-2.4,6.482,6.482,0,0,0-.816-1.955,4.116,4.116,0,0,0-1.564-1.5,4.254,4.254,0,0,0-2.04-.51,3.342,3.342,0,0,0-3.06,1.836,10.907,10.907,0,0,0-1.054,5.338,11.409,11.409,0,0,0,1.054,5.44,3.3,3.3,0,0,0,3.026,1.9,4.286,4.286,0,0,0,2.142-.578,4.789,4.789,0,0,0,1.666-1.564,5.4,5.4,0,0,0,.7-1.853,14.866,14.866,0,0,0,.221-2.839Z" transform="translate(-10.029 -11.754)" style="fill:#181719"/><path d="M499.958,62.508V61.08a4.717,4.717,0,0,0-.7-2.873,2.558,2.558,0,0,0-2.159-.9,1.989,1.989,0,0,0-1.5.527,5,5,0,0,0-.952,1.751,3.041,3.041,0,0,1-.867,1.326,2.314,2.314,0,0,1-1.547.476,1.844,1.844,0,0,1-1.462-.578,2.38,2.38,0,0,1-.51-1.632,2.879,2.879,0,0,1,1.785-2.584,11.85,11.85,0,0,1,5.389-.952q3.808,0,5.44,1.377t1.633,4.607V69.07q0,2.891,1.156,2.89a1.844,1.844,0,0,0,1.189-.442l.51.986a3.3,3.3,0,0,1-1.478,1.343,5.077,5.077,0,0,1-2.262.493,2.96,2.96,0,0,1-2.379-.952,4,4,0,0,1-.816-2.686h-.17a6.692,6.692,0,0,1-6.121,3.6A4.826,4.826,0,0,1,490.71,73.1a4.106,4.106,0,0,1-1.292-3.145,3.911,3.911,0,0,1,1.326-2.8,13.861,13.861,0,0,1,4.42-2.567Zm0,1.8a22.868,22.868,0,0,0-4.3,2.4,3.015,3.015,0,0,0-1.445,2.3,2.191,2.191,0,0,0,.544,1.564,1.787,1.787,0,0,0,1.36.578,4.032,4.032,0,0,0,1.53-.289,3.912,3.912,0,0,0,1.224-.765,3.394,3.394,0,0,0,.8-1.139,3.486,3.486,0,0,0,.289-1.411Z" transform="translate(-10.029 -11.754)" style="fill:#181719"/></svg>