<svg id="Layer_1" data-name="Layer 1" xmlns="http://www.w3.org/2000/svg" viewBox="0 0 463.119 77.608"><title>AGCAP_RGB_Secondary_White</title><path d="M91.577,43.555c0,21.431-18.26,38.8-40.786,38.8s-40.784-17.373-40.784-38.8,18.26-38.8,40.784-38.8,40.786,17.373,40.786,38.8" transform="translate(-10.007 -4.751)" style="fill:#8f181b"/><path d="M50.829,22.441a15.4,15.4,0,0,1,3.814-3.089c-.385-3.013-3.59-7.613-3.814-7.471-.179-.171-3.425,4.438-3.814,7.471a15.432,15.432,0,0,1,3.814,3.089" transform="translate(-10.007 -4.751)" style="fill:#fff"/><path d="M50.829,37.677c1.862-2.385,4.851-3.748,7.788-4.78a19.962,19.962,0,0,0,.75-7.124c-.109-.075-5.851,2.379-7.885,5.1a8.939,8.939,0,0,0-.653.988,8.637,8.637,0,0,0-.651-.988c-2.033-2.719-7.778-5.173-7.884-5.1a19.89,19.89,0,0,0,.748,7.124c2.876,1.011,5.966,2.414,7.787,4.78" transform="translate(-10.007 -4.751)" style="fill:#fff"/><path d="M63.632,40.774c-.1-.095-6.827,1.684-9.535,4.333a8.285,8.285,0,0,0-1.91,2.71l0-.067a1.362,1.362,0,0,0-2.707,0l0,.061a8.328,8.328,0,0,0-1.91-2.7c-2.707-2.649-9.43-4.428-9.533-4.333-.155.144.849,7.206,3.56,9.857s5.59,2.93,7.242,1.4a3.274,3.274,0,0,0,.394-.466l-1.292,19.71a2.889,2.889,0,0,0,3.076,2.929,2.72,2.72,0,0,0,2.715-2.929L52.432,51.564a3.312,3.312,0,0,0,.4.469c1.654,1.528,4.536,1.25,7.243-1.4s3.715-9.713,3.561-9.857" transform="translate(-10.007 -4.751)" style="fill:#fff"/><path d="M49.393,45.26a2.271,2.271,0,0,1,2.875,0c1.865-2.508,4.87-3.9,8.095-5.02a22.238,22.238,0,0,0,1.687-6.861c-.1-.095-6.824,1.678-9.535,4.33a9,9,0,0,0-1.686,2.235,8.87,8.87,0,0,0-1.685-2.235c-2.711-2.652-9.433-4.425-9.534-4.33A22.109,22.109,0,0,0,41.3,40.24c3.2,1.1,6.22,2.512,8.1,5.02" transform="translate(-10.007 -4.751)" style="fill:#fff"/><path d="M50.829,29.524a11.47,11.47,0,0,1,5.451-3.81,18.045,18.045,0,0,0,.525-5.676c-.077-.06-4.1,1.895-5.519,4.062a7.083,7.083,0,0,0-.457.787,7.057,7.057,0,0,0-.455-.787c-1.424-2.167-5.445-4.122-5.519-4.062a17.984,17.984,0,0,0,.523,5.676,11.524,11.524,0,0,1,5.451,3.81" transform="translate(-10.007 -4.751)" style="fill:#fff"/><path d="M129.084,47.609h-9.622a15.333,15.333,0,0,0-1.6,5,1.208,1.208,0,0,0,.765,1.292,7.259,7.259,0,0,0,2.3.272v1.36h-9.316v-1.36a9.524,9.524,0,0,0,1.411-.272,3.735,3.735,0,0,0,1.054-.476,2.976,2.976,0,0,0,.8-.8,7.025,7.025,0,0,0,.646-1.207l8.942-22.406h2.516L135.1,48.867q.714,1.734,1.207,2.72a5.311,5.311,0,0,0,1.054,1.513,3.055,3.055,0,0,0,1.292.731,10.721,10.721,0,0,0,1.887.306v1.394H127.69V54.137a8.143,8.143,0,0,0,2.346-.34,1.057,1.057,0,0,0,.714-1.088,4.255,4.255,0,0,0-.238-1.224q-.238-.749-.646-1.836Zm-8.84-2.04h8.092l-3.91-10.3h-.136Z" transform="translate(-10.007 -4.751)" style="fill:#fff"/><path d="M149.348,51.859q.916.068,1.615.136c.464.046.906.1,1.326.153l1.258.17q.629.086,1.343.187a6.794,6.794,0,0,1,4.165,1.989,5.622,5.622,0,0,1,1.513,3.995,4.864,4.864,0,0,1-2.38,4.386q-2.38,1.5-7,1.5a13.994,13.994,0,0,1-6.545-1.241,3.852,3.852,0,0,1-2.3-3.519,3.578,3.578,0,0,1,.918-2.669,3.164,3.164,0,0,1,2.312-.9,4.321,4.321,0,0,1,1.717.357,3.78,3.78,0,0,1,1.411,1.037,2.5,2.5,0,0,0-1.445.8,2.149,2.149,0,0,0-.561,1.479A2.314,2.314,0,0,0,147.9,61.8a6.958,6.958,0,0,0,3.553.731q5.1,0,5.1-3.23a2.838,2.838,0,0,0-.765-1.989,3.4,3.4,0,0,0-2.193-1l-5.951-.816q-3.772-.51-3.773-3.366a3.051,3.051,0,0,1,.9-2.278,5,5,0,0,1,2.567-1.224v-.136a4.834,4.834,0,0,1-1.411-.85,6.178,6.178,0,0,1-1.105-1.258,5.883,5.883,0,0,1-.986-3.264,5.41,5.41,0,0,1,.527-2.363,5.531,5.531,0,0,1,1.462-1.887,7.21,7.21,0,0,1,2.21-1.241,8.121,8.121,0,0,1,2.771-.459,9.39,9.39,0,0,1,2.856.442,7.378,7.378,0,0,1,2.38,1.224q.782-.475,1.36-.8a8.187,8.187,0,0,1,1.071-.51,5.876,5.876,0,0,1,.9-.272,3.968,3.968,0,0,1,.816-.085,3.49,3.49,0,0,1,2.091.578,1.8,1.8,0,0,1,.8,1.53,1.624,1.624,0,0,1-.441,1.173,1.533,1.533,0,0,1-1.156.459,1.367,1.367,0,0,1-.816-.221,4.883,4.883,0,0,1-.595-.51,4.8,4.8,0,0,0-.6-.51,1.355,1.355,0,0,0-.815-.221,1.755,1.755,0,0,0-1.36.918,4.048,4.048,0,0,1,.476,1.241,7.818,7.818,0,0,1,.136,1.547,6.723,6.723,0,0,1-.408,2.38,5.151,5.151,0,0,1-1.275,1.921,7.318,7.318,0,0,1-2.227,1.411,11.571,11.571,0,0,1-3.3.782,8.71,8.71,0,0,0-2.261.442.876.876,0,0,0-.629.816Q147.818,51.723,149.348,51.859Zm1.631-4.148a1.875,1.875,0,0,0,1.7-1.156,6.994,6.994,0,0,0,.612-3.23,6.976,6.976,0,0,0-.612-3.247,1.9,1.9,0,0,0-1.734-1.139A2.059,2.059,0,0,0,149.11,40.1a6.231,6.231,0,0,0-.68,3.162,6.492,6.492,0,0,0,.7,3.247A2.09,2.09,0,0,0,150.979,47.711Z" transform="translate(-10.007 -4.751)" style="fill:#fff"/><path d="M199.124,29.351h1.666l-.681,8.6H198.75a9.008,9.008,0,0,0-2.771-4.93,7.3,7.3,0,0,0-4.981-1.8,7.736,7.736,0,0,0-3.571.8,7.362,7.362,0,0,0-2.635,2.278,10.788,10.788,0,0,0-1.631,3.6,18.735,18.735,0,0,0-.561,4.777q0,5.269,2.158,8.109a7.511,7.511,0,0,0,6.375,2.839,8.552,8.552,0,0,0,5.627-1.836,10.173,10.173,0,0,0,3.179-5.474h1.5v9.214h-1.6l-.476-2.686a13.972,13.972,0,0,1-9.077,3.026,16.279,16.279,0,0,1-5.611-.918,12.167,12.167,0,0,1-4.283-2.6,11.458,11.458,0,0,1-2.738-4.1,14.3,14.3,0,0,1-.968-5.372,15.048,15.048,0,0,1,1.02-5.644A12.59,12.59,0,0,1,185,30.014a15.515,15.515,0,0,1,5.694-1,12.628,12.628,0,0,1,3.876.578,18.376,18.376,0,0,1,3.911,1.87Z" transform="translate(-10.007 -4.751)" style="fill:#fff"/><path d="M216.8,44.039V42.611a4.713,4.713,0,0,0-.7-2.873,2.556,2.556,0,0,0-2.159-.9,1.988,1.988,0,0,0-1.5.527,4.972,4.972,0,0,0-.952,1.751,3.051,3.051,0,0,1-.868,1.326,2.317,2.317,0,0,1-1.547.476,1.842,1.842,0,0,1-1.461-.578,2.381,2.381,0,0,1-.511-1.632,2.879,2.879,0,0,1,1.785-2.584,11.841,11.841,0,0,1,5.39-.952q3.807,0,5.44,1.377t1.631,4.607V50.6q0,2.891,1.157,2.89a1.847,1.847,0,0,0,1.19-.442l.509.986a3.3,3.3,0,0,1-1.479,1.343,5.065,5.065,0,0,1-2.26.493,2.967,2.967,0,0,1-2.381-.952,4,4,0,0,1-.816-2.686h-.17a6.686,6.686,0,0,1-6.12,3.6,4.825,4.825,0,0,1-3.433-1.207,4.1,4.1,0,0,1-1.293-3.145,3.915,3.915,0,0,1,1.326-2.8,13.872,13.872,0,0,1,4.42-2.567Zm0,1.8a22.844,22.844,0,0,0-4.3,2.4,3.016,3.016,0,0,0-1.444,2.3A2.19,2.19,0,0,0,211.6,52.1a1.788,1.788,0,0,0,1.359.578,4.029,4.029,0,0,0,1.53-.289,3.949,3.949,0,0,0,1.224-.765,3.383,3.383,0,0,0,.8-1.139,3.5,3.5,0,0,0,.288-1.411Z" transform="translate(-10.007 -4.751)" style="fill:#fff"/><path d="M234.075,39.721h.136a7.421,7.421,0,0,1,5.848-2.55,9.2,9.2,0,0,1,3.621.7,8.519,8.519,0,0,1,4.726,4.9,10.346,10.346,0,0,1,.663,3.757,10.212,10.212,0,0,1-.663,3.74,9.027,9.027,0,0,1-1.853,2.958,8.324,8.324,0,0,1-2.839,1.955,9.133,9.133,0,0,1-3.587.7,5.974,5.974,0,0,1-5.032-2.244h-.136v4.726a13.785,13.785,0,0,0,.136,2.176,2.25,2.25,0,0,0,.578,1.258,2.427,2.427,0,0,0,1.241.612,12.174,12.174,0,0,0,2.125.2v1.428h-11.73V62.6a6.3,6.3,0,0,0,1.5-.2,1.666,1.666,0,0,0,.9-.612,2.76,2.76,0,0,0,.442-1.207,13.469,13.469,0,0,0,.119-1.989V45.943q0-1.564-.068-2.975a18.366,18.366,0,0,0-.17-1.989,1.5,1.5,0,0,0-.765-1.088,4.782,4.782,0,0,0-2.023-.306V38.259l6.834-.952Zm5.78-.612a4.714,4.714,0,0,0-2.074.476,4.134,4.134,0,0,0-1.564,1.258,5.665,5.665,0,0,0-.884,1.955,10.008,10.008,0,0,0-.306,2.533v2.312a6.988,6.988,0,0,0,1.19,4.114,4.169,4.169,0,0,0,3.638,1.87,3.324,3.324,0,0,0,3.077-1.717,10.887,10.887,0,0,0,1-5.321Q243.935,39.11,239.855,39.109Z" transform="translate(-10.007 -4.751)" style="fill:#fff"/><path d="M261.139,49.955a18.358,18.358,0,0,0,.1,2.176,2.833,2.833,0,0,0,.408,1.258,1.494,1.494,0,0,0,.884.595,7.366,7.366,0,0,0,1.564.187v1.36h-10.71v-1.36a6.011,6.011,0,0,0,1.547-.221,1.782,1.782,0,0,0,.918-.612,2.627,2.627,0,0,0,.442-1.19,13.181,13.181,0,0,0,.119-1.955V46.011q0-1.973-.068-3.247a13.377,13.377,0,0,0-.17-1.751,1.44,1.44,0,0,0-.765-1.122,5.823,5.823,0,0,0-2.159-.272V38.463l7.888-1.292Zm-5-19.992a2.564,2.564,0,0,1,.765-1.887,2.523,2.523,0,0,1,1.853-.765,2.613,2.613,0,0,1,2.652,2.652,2.524,2.524,0,0,1-.765,1.853,2.564,2.564,0,0,1-1.887.765,2.612,2.612,0,0,1-2.618-2.618Z" transform="translate(-10.007 -4.751)" style="fill:#fff"/><path d="M267.564,39.381v-1.53a8.945,8.945,0,0,0,3.417-1.751,7.6,7.6,0,0,0,2.058-2.7h1.733v4.114h3.91v1.87h-3.91V49.819a7,7,0,0,0,.459,2.992,1.606,1.606,0,0,0,1.547.884,2.17,2.17,0,0,0,2.006-1.224l.715.986q-.954,2.414-4.489,2.414a5.561,5.561,0,0,1-3.655-1.088,3.756,3.756,0,0,1-1.309-3.06V39.381Z" transform="translate(-10.007 -4.751)" style="fill:#fff"/><path d="M293.438,44.039V42.611a4.713,4.713,0,0,0-.7-2.873,2.557,2.557,0,0,0-2.159-.9,1.989,1.989,0,0,0-1.5.527,5,5,0,0,0-.952,1.751,3.041,3.041,0,0,1-.867,1.326,2.319,2.319,0,0,1-1.547.476,1.844,1.844,0,0,1-1.462-.578,2.385,2.385,0,0,1-.51-1.632,2.879,2.879,0,0,1,1.785-2.584,11.839,11.839,0,0,1,5.389-.952q3.807,0,5.44,1.377t1.632,4.607V50.6q0,2.891,1.156,2.89a1.843,1.843,0,0,0,1.19-.442l.51.986a3.3,3.3,0,0,1-1.479,1.343,5.067,5.067,0,0,1-2.261.493,2.964,2.964,0,0,1-2.38-.952,4,4,0,0,1-.816-2.686h-.17a6.689,6.689,0,0,1-6.12,3.6,4.826,4.826,0,0,1-3.434-1.207,4.106,4.106,0,0,1-1.292-3.145,3.911,3.911,0,0,1,1.326-2.8,13.861,13.861,0,0,1,4.42-2.567Zm0,1.8a22.844,22.844,0,0,0-4.3,2.4,3.015,3.015,0,0,0-1.445,2.3,2.194,2.194,0,0,0,.544,1.564,1.792,1.792,0,0,0,1.36.578,4.032,4.032,0,0,0,1.53-.289,3.949,3.949,0,0,0,1.224-.765,3.38,3.38,0,0,0,.8-1.139,3.5,3.5,0,0,0,.289-1.411Z" transform="translate(-10.007 -4.751)" style="fill:#fff"/><path d="M311.7,49.955a18.358,18.358,0,0,0,.1,2.176,2.833,2.833,0,0,0,.408,1.258,1.494,1.494,0,0,0,.884.595,7.366,7.366,0,0,0,1.564.187v1.36h-10.71v-1.36a6.011,6.011,0,0,0,1.547-.221,1.782,1.782,0,0,0,.918-.612,2.627,2.627,0,0,0,.442-1.19,13.181,13.181,0,0,0,.119-1.955V36.151q0-1.973-.068-3.247a13.357,13.357,0,0,0-.17-1.751,1.44,1.44,0,0,0-.765-1.122,5.845,5.845,0,0,0-2.159-.272V28.6l7.888-1.292Z" transform="translate(-10.007 -4.751)" style="fill:#fff"/><path d="M352.529,29.351H354.2l-.68,8.6h-1.36a9,9,0,0,0-2.771-4.93,7.3,7.3,0,0,0-4.981-1.8,7.729,7.729,0,0,0-3.57.8A7.362,7.362,0,0,0,338.2,34.3a10.769,10.769,0,0,0-1.632,3.6,18.735,18.735,0,0,0-.561,4.777q0,5.269,2.159,8.109a7.511,7.511,0,0,0,6.375,2.839,8.552,8.552,0,0,0,5.627-1.836,10.185,10.185,0,0,0,3.179-5.474h1.5v9.214h-1.6l-.476-2.686a13.975,13.975,0,0,1-9.078,3.026,16.269,16.269,0,0,1-5.61-.918,12.172,12.172,0,0,1-4.284-2.6,11.469,11.469,0,0,1-2.737-4.1,14.3,14.3,0,0,1-.969-5.372,15.068,15.068,0,0,1,1.02-5.644,12.59,12.59,0,0,1,7.293-7.225,15.521,15.521,0,0,1,5.695-1,12.637,12.637,0,0,1,3.876.578,18.371,18.371,0,0,1,3.91,1.87Z" transform="translate(-10.007 -4.751)" style="fill:#fff"/><path d="M370.209,44.039V42.611a4.713,4.713,0,0,0-.7-2.873,2.557,2.557,0,0,0-2.159-.9,1.989,1.989,0,0,0-1.5.527,5,5,0,0,0-.952,1.751,3.041,3.041,0,0,1-.867,1.326,2.319,2.319,0,0,1-1.547.476,1.844,1.844,0,0,1-1.462-.578,2.385,2.385,0,0,1-.51-1.632,2.879,2.879,0,0,1,1.785-2.584,11.839,11.839,0,0,1,5.389-.952q3.807,0,5.44,1.377t1.632,4.607V50.6q0,2.891,1.156,2.89a1.843,1.843,0,0,0,1.19-.442l.51.986a3.3,3.3,0,0,1-1.479,1.343,5.067,5.067,0,0,1-2.261.493,2.964,2.964,0,0,1-2.38-.952,4,4,0,0,1-.816-2.686h-.17a6.689,6.689,0,0,1-6.12,3.6,4.826,4.826,0,0,1-3.434-1.207,4.106,4.106,0,0,1-1.292-3.145A3.911,3.911,0,0,1,361,48.68a13.861,13.861,0,0,1,4.42-2.567Zm0,1.8a22.844,22.844,0,0,0-4.3,2.4,3.015,3.015,0,0,0-1.445,2.3,2.194,2.194,0,0,0,.544,1.564,1.792,1.792,0,0,0,1.36.578,4.032,4.032,0,0,0,1.53-.289,3.949,3.949,0,0,0,1.224-.765,3.38,3.38,0,0,0,.8-1.139,3.5,3.5,0,0,0,.289-1.411Z" transform="translate(-10.007 -4.751)" style="fill:#fff"/><path d="M388.807,49.989a21.82,21.82,0,0,0,.085,2.193,2.678,2.678,0,0,0,.374,1.224,1.391,1.391,0,0,0,.884.561,10.846,10.846,0,0,0,1.615.2v1.36h-10.71v-1.36a10.735,10.735,0,0,0,1.581-.2,1.577,1.577,0,0,0,.918-.544,2.356,2.356,0,0,0,.425-1.156,15.9,15.9,0,0,0,.1-2.04v-4.25q0-2.005-.068-3.247a11.982,11.982,0,0,0-.17-1.683,2.608,2.608,0,0,0-.272-.731,1.1,1.1,0,0,0-.51-.442,2.753,2.753,0,0,0-.85-.2q-.51-.051-1.292-.051V38.463l6.562-1.292.442,2.992h.136a7.967,7.967,0,0,1,2.652-2.21,7.291,7.291,0,0,1,3.366-.782,8.8,8.8,0,0,1,3.519.595,6.166,6.166,0,0,1,2.4,1.989,7.839,7.839,0,0,1,1.02,2.023,10.526,10.526,0,0,1,.442,3.417v4.794a21.82,21.82,0,0,0,.085,2.193,2.7,2.7,0,0,0,.374,1.224,1.384,1.384,0,0,0,.867.561,10.243,10.243,0,0,0,1.564.2v1.36H393.7v-1.36a7.832,7.832,0,0,0,1.615-.187,1.57,1.57,0,0,0,.9-.561,2.487,2.487,0,0,0,.408-1.173,15.981,15.981,0,0,0,.1-2.023V45.6a17.689,17.689,0,0,0-.2-2.924,5.3,5.3,0,0,0-.663-1.921,2.646,2.646,0,0,0-1.207-1.054,4.738,4.738,0,0,0-1.87-.323,2.941,2.941,0,0,0-1.87.612,5.221,5.221,0,0,0-1.36,1.7,7.12,7.12,0,0,0-.527,1.581,9.031,9.031,0,0,0-.221,2.023Z" transform="translate(-10.007 -4.751)" style="fill:#fff"/><path d="M418.522,44.039V42.611a4.721,4.721,0,0,0-.7-2.873,2.557,2.557,0,0,0-2.159-.9,1.989,1.989,0,0,0-1.5.527,5,5,0,0,0-.952,1.751,3.041,3.041,0,0,1-.867,1.326,2.319,2.319,0,0,1-1.547.476,1.844,1.844,0,0,1-1.462-.578,2.385,2.385,0,0,1-.51-1.632,2.879,2.879,0,0,1,1.785-2.584,11.836,11.836,0,0,1,5.389-.952q3.807,0,5.44,1.377t1.632,4.607V50.6q0,2.891,1.156,2.89a1.847,1.847,0,0,0,1.19-.442l.51.986a3.306,3.306,0,0,1-1.479,1.343,5.07,5.07,0,0,1-2.261.493,2.967,2.967,0,0,1-2.381-.952A4.008,4.008,0,0,1,419,52.233h-.17a6.689,6.689,0,0,1-6.12,3.6,4.826,4.826,0,0,1-3.434-1.207,4.1,4.1,0,0,1-1.293-3.145,3.912,3.912,0,0,1,1.327-2.8,13.849,13.849,0,0,1,4.42-2.567Zm0,1.8a22.862,22.862,0,0,0-4.3,2.4,3.015,3.015,0,0,0-1.445,2.3,2.19,2.19,0,0,0,.544,1.564,1.792,1.792,0,0,0,1.36.578,4.032,4.032,0,0,0,1.53-.289,3.949,3.949,0,0,0,1.224-.765,3.394,3.394,0,0,0,.8-1.139,3.5,3.5,0,0,0,.288-1.411Z" transform="translate(-10.007 -4.751)" style="fill:#fff"/><path d="M444.736,53.355H444.6a7.944,7.944,0,0,1-6.086,2.516,9.069,9.069,0,0,1-3.553-.68,8.238,8.238,0,0,1-2.788-1.9,8.61,8.61,0,0,1-1.82-2.907,10.326,10.326,0,0,1-.645-3.723,10.5,10.5,0,0,1,.662-3.774,9.614,9.614,0,0,1,1.8-3.009,8.04,8.04,0,0,1,2.72-1.989,8.8,8.8,0,0,1,6.425-.2,5.5,5.5,0,0,1,2.295,1.734h.137v-2.89q0-2.005-.052-3.451a12.711,12.711,0,0,0-.152-1.887,1.488,1.488,0,0,0-1.037-1.037,8.186,8.186,0,0,0-2.669-.323V28.671l8.6-1.36V46.759q0,2.55.051,3.927a14.9,14.9,0,0,0,.188,2.091,2.424,2.424,0,0,0,.2.714.978.978,0,0,0,.408.425,1.937,1.937,0,0,0,.73.2,11,11,0,0,0,1.173.051V55.5l-6.46.374Zm-1.053-7.582a9.982,9.982,0,0,0-.273-2.4,6.481,6.481,0,0,0-.815-1.955,4.119,4.119,0,0,0-1.565-1.5,4.251,4.251,0,0,0-2.04-.51,3.34,3.34,0,0,0-3.059,1.836,10.893,10.893,0,0,0-1.054,5.338,11.4,11.4,0,0,0,1.054,5.44,3.3,3.3,0,0,0,3.026,1.9,4.289,4.289,0,0,0,2.142-.578,4.8,4.8,0,0,0,1.666-1.564,5.445,5.445,0,0,0,.7-1.853,15.031,15.031,0,0,0,.221-2.839Z" transform="translate(-10.007 -4.751)" style="fill:#fff"/><path d="M465.714,44.039V42.611a4.72,4.72,0,0,0-.7-2.873,2.557,2.557,0,0,0-2.159-.9,1.989,1.989,0,0,0-1.5.527,5,5,0,0,0-.952,1.751,3.041,3.041,0,0,1-.867,1.326,2.319,2.319,0,0,1-1.547.476,1.844,1.844,0,0,1-1.462-.578,2.385,2.385,0,0,1-.51-1.632,2.878,2.878,0,0,1,1.786-2.584,11.832,11.832,0,0,1,5.388-.952q3.809,0,5.44,1.377t1.633,4.607V50.6q0,2.891,1.156,2.89a1.846,1.846,0,0,0,1.189-.442l.51.986a3.306,3.306,0,0,1-1.479,1.343,5.07,5.07,0,0,1-2.261.493,2.96,2.96,0,0,1-2.379-.952,4,4,0,0,1-.817-2.686h-.169a6.689,6.689,0,0,1-6.121,3.6,4.823,4.823,0,0,1-3.433-1.207,4.1,4.1,0,0,1-1.293-3.145,3.911,3.911,0,0,1,1.326-2.8,13.861,13.861,0,0,1,4.42-2.567Zm0,1.8a22.876,22.876,0,0,0-4.3,2.4,3.013,3.013,0,0,0-1.444,2.3,2.185,2.185,0,0,0,.544,1.564,1.788,1.788,0,0,0,1.359.578,4.029,4.029,0,0,0,1.53-.289,3.949,3.949,0,0,0,1.224-.765,3.408,3.408,0,0,0,.8-1.139,3.486,3.486,0,0,0,.289-1.411Z" transform="translate(-10.007 -4.751)" style="fill:#fff"/></svg>